<svg xmlns="http://www.w3.org/2000/svg" xmlns:xlink="http://www.w3.org/1999/xlink" viewBox="0 0 121.16 118.45"><defs><style>.cls-1{fill:none;}.cls-2{clip-path:url(#clip-path);}</style><clipPath id="clip-path" transform="translate(-857.36 -318.3)"><rect class="cls-1" width="1024" height="768"/></clipPath></defs><title>Ресурс 21080s</title><g id="Слой_2" data-name="Слой 2"><g id="Слой_1-2" data-name="Слой 1"><g class="cls-2"><path d="M884.2,344.83h0" transform="translate(-857.36 -318.3)"/><path d="M950.67,375.71l.17,0c.11-.53.23-1.06.36-1.67-.71.45-.71.45-.53,1.63m-19.2,2.43,1.89-4.91c-1.49,1.3-1.6,3.15-1.89,4.91m8.64,2.73c1.22.06,1.44-.06,1.84-1,.15-.35.28-.71.45-1.05a4.39,4.39,0,0,0,.44-2.26c-.07-1.25-.09-2.5-.13-3.85-.16.14-.24.19-.29.25a15.29,15.29,0,0,0-2.89,6.12.91.91,0,0,0,0,.49c.17.46.38.91.56,1.34m-53.9-1.2a.64.64,0,0,0,.81-.19,4.43,4.43,0,0,0,1.25-2.49c.18-1.08.37-2.15.54-3.22.13-.81.25-1.63.37-2.46l-1.43-.7c-.52,3.08-1,6.07-1.54,9.06m63.85-14.52c.42.15.79.24,1.13.4a.66.66,0,0,0,.78-.11,3.37,3.37,0,0,0,1.26-2.08c.24-1.35.47-2.7.7-4.06.11-.64.2-1.29.29-1.89l-.12-.1-.46-.19a3.59,3.59,0,0,1-2.36-2.47,1.7,1.7,0,0,0-.2-.53.48.48,0,0,0-.32-.19c-.08,0-.2.1-.25.19a1.31,1.31,0,0,0-.09.34c-.28,1-.56,2-.82,2.93a2.36,2.36,0,0,0,0,.7c.06,1.07.13,2.13.2,3.19.1,1.28.2,2.55.3,3.87m-16.93,4.59c.31.08.51.14.72.18s.46.07.75.11l3.82-9.92a6.69,6.69,0,0,1-2.86-2.68l-.15.05c-.76,4.07-1.52,8.13-2.28,12.26m-27.72,6.12a2.82,2.82,0,0,0,.45-.21,4.71,4.71,0,0,0,1.94-2.88c.59-3.24,1.14-6.49,1.7-9.73.14-.76.26-1.52.4-2.31l-1-.43c-.07.44-.13.79-.18,1.14a2.77,2.77,0,0,1-2.06,2.19l-1.76.4c.44.48.85.89,1.22,1.35a2.72,2.72,0,0,1,.57,2.27c-.32,1.94-.62,3.88-.93,5.82-.12.76-.24,1.53-.37,2.39m44.53,2.28c-.15-.29-.22-.49-.33-.67a3.28,3.28,0,0,1-.48-1.68c-.08-1.77-.21-3.54-.28-5.32a.71.71,0,0,0-.59-.75,5.13,5.13,0,0,0-4.1.48c0,.27,0,.5,0,.74.05,2.1.09,4.21.17,6.32a2.92,2.92,0,0,1-.27,1.37c-.13.26-.21.54-.35.9l6.23-1.39m-11.57,2.55a3.09,3.09,0,0,0-.19-.55,1.73,1.73,0,0,1-.1-1.44c.27-.83.48-1.69.79-2.5a14.21,14.21,0,0,1,4.06-5.92,5.88,5.88,0,0,1,6.23-1.18,3.15,3.15,0,0,1,2.06,2.18c0,.18.1.35.16.53a2.46,2.46,0,0,0,.68-4,4.89,4.89,0,0,0-2.72-1.28c-.22,0-.45-.1-.64-.15,0-.17-.06-.26-.07-.36-.21-2.83-.42-5.67-.61-8.51a1.76,1.76,0,0,1,.19-.73,2.41,2.41,0,0,0,.35-1.25c-3.64.63-7.18,1.45-10.78,2.3a6.67,6.67,0,0,0,2.51,1.48c-.1.27-.18.51-.27.75Q937,368,934,375.81a33.07,33.07,0,0,1-2.62,6,1.44,1.44,0,0,0-.09.29l7.13-1.38m12.9-2.94c.42-.06.69-.1,1-.16,3.92-.78,7.83-1.6,11.76-2.34a3.2,3.2,0,0,0,2.14-1.37,5.39,5.39,0,0,0,.94-2.2c.19-1.08.42-2.14.57-3.22a7.82,7.82,0,0,1,2-4.53c.24-.26.5-.49.86-.85l-1.76-.08c0-.25,0-.44.07-.62.45-2.59.84-5.19,1.39-7.76a2.52,2.52,0,0,0-1.12-2.81l-.34-.25a1.19,1.19,0,0,0-1-.19l-13,2.68c-.64.13-1.28.29-1.95.44a1.3,1.3,0,0,0,.67.87,14.77,14.77,0,0,0,1.72.64,7,7,0,0,0,.75.17c-.43,2.49-.85,4.89-1.24,7.3a4.92,4.92,0,0,1-1.76,3.07l-.54.47,1.53.22a2.65,2.65,0,0,1,0,.29c-.5,2.61-1,5.21-1.48,7.82a3.36,3.36,0,0,1-.55,1.37c-.21.3-.39.63-.65,1m-47.57-.65c.18-1.1.34-2.08.49-3.07.35-2.2.71-4.4,1-6.6a1.91,1.91,0,0,0-2.18-2.11l-13.55,2.85c-.53.11-1,.25-1.63.39a3.51,3.51,0,0,0,3,1.45c0,.15,0,.25,0,.34-.39,2.36-.75,4.73-1.17,7.09a5.64,5.64,0,0,1-2.23,3.6l-.57.46,1.83.3c-.07.41-.13.78-.19,1.14-.31,1.71-.54,3.43-1,5.1a2.69,2.69,0,0,0,1.12,3,.12.12,0,0,1,0,.05.84.84,0,0,0,.84.24c.49-.1,1-.15,1.47-.25,2.63-.51,5.25-1,7.87-1.55a1.33,1.33,0,0,0,.61-.32c.67-.73,1.34-1.48,2-2.25a1.93,1.93,0,0,0,.35-.83c.32-1.48.63-3,.91-4.45a6.51,6.51,0,0,1,2.36-3.86,3.84,3.84,0,0,0,.35-.35l-1.78-.33m-19.17,4c.06-.37.1-.68.15-1,.49-2.94,1-5.89,1.5-8.83.21-1.21.44-2.42.73-3.62a2.25,2.25,0,0,1,2-1.83c.7-.1,1.39-.28,2.09-.43l15.08-3.11a1.39,1.39,0,0,0,1.27-1.32c.06-.42.11-.84.15-1.27s.09-.92.14-1.43c-.3,0-.51.05-.72.09l-21.85,4.38A3.65,3.65,0,0,0,882.3,365a5.29,5.29,0,0,0-.37,1.23c-.88,4.85-1.74,9.7-2.61,14.55a7.35,7.35,0,0,1-.19.73c-.11-.36-.18-.58-.24-.81-.85-2.91-1.69-5.82-2.54-8.73a1,1,0,0,0-1.12-.86,2.79,2.79,0,0,0-.7.08c-1.75.4-3.51.81-5.26,1.23l-2.52.62a4.74,4.74,0,0,0,3.13,1.4,3.71,3.71,0,0,1,0,.38c-.55,2.71-1.09,5.43-1.66,8.15a2.4,2.4,0,0,1-.51,1c-.55.64-1.15,1.22-1.79,1.88l1.88.27c-.35,2.15-.74,4.25-1,6.36a6.83,6.83,0,0,1-1.18,3.15,3,3,0,0,0-.21.51c1.56-.27,3-.54,4.48-.78a1.36,1.36,0,0,0,1-.52,2.72,2.72,0,0,0,.54-1c.67-3.95,1.38-7.89,2.08-11.84a4.89,4.89,0,0,1,.17-.53c.14.32.22.51.3.71l4,10.36a3.56,3.56,0,0,0,.37.76,11.22,11.22,0,0,0,3.46,3.33,4.71,4.71,0,0,0,3.09.84c.37,0,.76,0,1.14,0l2.6-.12c-.56-.33-1-.55-1.4-.82a7.71,7.71,0,0,1-3.79-6.33c0-.94-.06-1.9,0-2.84a9,9,0,0,1,2.39-5.73l.35-.42-1.59-.08m67.36-29a7.62,7.62,0,0,0-1.33-1.83,2.88,2.88,0,0,0-3-.91q-8.31,1.86-16.65,3.65a2.08,2.08,0,0,0-1.4,1,9.27,9.27,0,0,0-.45.89q-4.57,9.68-9.14,19.36c-.1.21-.22.4-.38.71a5.56,5.56,0,0,1-.15-.57c-.08-.49-.15-1-.23-1.48l-1.5-9.77c-.25-1.64-.48-3.28-.75-4.92a1.61,1.61,0,0,0-2.1-1.43l-3.27.66-2.9.61a4.72,4.72,0,0,0,3,1.54c-.12.71-.22,1.38-.34,2.05-.64,3.71-1.3,7.43-1.94,11.14a6.57,6.57,0,0,1-2.39,3.92l-.45.41,2,.46c0,.23-.07.44-.1.65-.22,1.31-.43,2.62-.66,3.93-.4,2.38-.75,4.77-1.25,7.14a7.63,7.63,0,0,1-5,5.55,7.79,7.79,0,0,1-1.38.3,1.06,1.06,0,0,0,.19.16,3.91,3.91,0,0,0,.51.24,8.69,8.69,0,0,0,8.63-1.48,3.61,3.61,0,0,0,1.41-2.24c.49-2.51,1-5,1.47-7.54.55-3.05,1-6.12,1.57-9.18a3.09,3.09,0,0,1,.14-.43,22.25,22.25,0,0,1,.49,2.72L916,388.05c.12.82.25,1.64.37,2.46,0,.23.09.42.35.47a2.78,2.78,0,0,0,1.73-.25,1.5,1.5,0,0,0,.51-.79q3.3-8.18,6.57-16.37c.1-.25.22-.5.33-.76a.64.64,0,0,1,.06.44l-2.61,14.48a1.24,1.24,0,0,0,1.57,1.53l5.3-1.06c4.85-1,9.71-1.91,14.56-2.88a1.23,1.23,0,0,0,1.14-1.17c.14-.77.27-1.54.4-2.32a5.14,5.14,0,0,0,0-.56c-.34,0-.61.06-.88.12l-13,2.78c-.69.15-1.38.32-2.08.44-1,.18-1.5-.32-1.38-1.28a2.7,2.7,0,0,1,0-.28c.47-2.47.91-4.94,1.42-7.4a6.58,6.58,0,0,1,2.52-4.09,1.48,1.48,0,0,0,.21-.26l-1.67-.38c0-.28.06-.51.11-.74q1-5.21,1.93-10.42c.16-.86.33-1.72.52-2.57a1.59,1.59,0,0,1,1.32-1.32c3.19-.71,6.37-1.43,9.56-2.16l7-1.61m-24.12,2a8.65,8.65,0,0,1,.53-1,3.47,3.47,0,0,1,2.28-1.56q8.37-1.8,16.73-3.65a4,4,0,0,1,4.1,1.14A20.67,20.67,0,0,1,953,351c.4.53.74,1.1,1.12,1.7l3.63-.74,9.94-2.06a2.33,2.33,0,0,1,1.71.31,6.38,6.38,0,0,1,2.16,2.13,2.07,2.07,0,0,1,.26,1.22c-.11,1.15-.29,2.3-.48,3.45-.23,1.35-.5,2.7-.74,4.06a3.5,3.5,0,0,0,0,.46,34.73,34.73,0,0,0,3.81.21c-.29.28-.44.44-.61.59l-2.44,2.08a6,6,0,0,0-2.11,3.69c-.2,1.28-.45,2.56-.68,3.85a6.78,6.78,0,0,1-1.54,3.24,4.18,4.18,0,0,1-2.43,1.47c-3.91.75-7.81,1.54-11.7,2.34-1.72.36-3.42.77-5.13,1.17a1.62,1.62,0,0,0-.29.15,3.2,3.2,0,0,1,.27.94,13,13,0,0,1-.73,4.11,2.47,2.47,0,0,1-2,1.43l-4.53.89-12.61,2.51c-1,.2-2,.35-3,.61-1.65.42-3.52-1.61-3.13-3a5,5,0,0,0,.18-1.35c-.41,1-.82,2-1.24,3.08-.25.64-.51,1.27-.76,1.92a.79.79,0,0,1-.58.55c-.6.15-1.19.34-1.79.45a3.49,3.49,0,0,1-2.07-.36.88.88,0,0,1-.55-.75q-.36-2.64-.74-5.28a16.33,16.33,0,0,0-.39-2c-.08.39-.15.78-.22,1.16q-.69,3.45-1.37,6.91a5.26,5.26,0,0,1-2,3.13,10.42,10.42,0,0,1-5.44,2.26,9.57,9.57,0,0,1-5.7-1.08c-1.58-.81-3.18-1.59-4.77-2.38l-.71-.4c.27-.26.54-.17.77-.17,1.76,0,3.52.05,5.27.11a3.86,3.86,0,0,0,2.23-.59,7.53,7.53,0,0,0,2.52-2.47,6.52,6.52,0,0,0,.77-2.43c.41-2.38.78-4.77,1.17-7.15.07-.47.16-.94.22-1.41,0-.25.06-.51.09-.86a1.89,1.89,0,0,0-.5.17,4.73,4.73,0,0,0-1.88,2.77c-.36,1.62-.67,3.25-1,4.88a2.4,2.4,0,0,1-.49,1.16c-.8.9-1.6,1.81-2.39,2.72a1.62,1.62,0,0,1-1,.53l-9.77,1.86a1.86,1.86,0,0,1-1.77-.51,21.62,21.62,0,0,1-1.57-1.74,1.71,1.71,0,0,1-.37-1.46c.33-1.84.63-3.69.95-5.53,0-.14,0-.28.05-.41-.37-.33-.57-.1-.75.18a7.21,7.21,0,0,0-1.37,3.69,26.29,26.29,0,0,0,0,3.55,5.64,5.64,0,0,0,2.13,4,10.37,10.37,0,0,0,2,1.31c1.59.8,3.21,1.53,4.82,2.3a1.67,1.67,0,0,1,.63.46,4.6,4.6,0,0,1-.52.06l-5.13.12c-1.61,0-3.22.09-4.84.1a3.27,3.27,0,0,1-1.16-.22,11.9,11.9,0,0,1-5.81-4.73,3.94,3.94,0,0,1-.39-.83l-2.13-5.58a2.37,2.37,0,0,0-.37-.67c-.09.47-.19.93-.28,1.4-.35,2-.69,4-1,6a2,2,0,0,1-.53,1.14,1.66,1.66,0,0,0-.32.38,2.13,2.13,0,0,1-1.63,1c-2.45.39-4.9.83-7.35,1.25a2.82,2.82,0,0,1-.44,0c.15-.28.24-.49.36-.69.64-1.08,1.29-2.16,1.91-3.25a2.43,2.43,0,0,0,.35-.85c.32-1.84.61-3.69.9-5.54a1.06,1.06,0,0,0,0-.3c-1.32-.47-2.76-.64-4.23-1.11a4.23,4.23,0,0,1,.48-.36c.86-.46,1.73-.89,2.59-1.35a3.78,3.78,0,0,0,2.1-2.77c.33-2,.78-3.9,1.18-5.85a1,1,0,0,0,0-.2,22.76,22.76,0,0,1-2.26-1.51,12.53,12.53,0,0,1-1.8-2c.53-.14.93-.25,1.33-.34,3-.71,6-1.41,9-2.13a3.13,3.13,0,0,1,1.82.11,2.14,2.14,0,0,1,1.42,1.48c.31,1.14.65,2.27,1,3.41,0,.13.09.26.19.54l.75-4.12c.33-1.82.64-3.64,1-5.46A5.52,5.52,0,0,1,883,362a5.62,5.62,0,0,1,2.13-.76l20.68-4.16q4.43-.89,8.84-1.8a3.05,3.05,0,0,1,3.72,2.53c.39,2.31.72,4.64,1.08,7,.24,1.59.48,3.18.73,4.78a2.43,2.43,0,0,0,.13.35c.16-.3.27-.5.37-.7" transform="translate(-857.36 -318.3)"/><path d="M893.55,392.74l2.14-.44c1.39-.29,2.78-.57,4.17-.89a1.73,1.73,0,0,0,.73-.39,16.46,16.46,0,0,0,2.81-3.2,2.88,2.88,0,0,0,.4-1c.36-1.65.67-3.3,1-4.95a3.1,3.1,0,0,1,1-1.82,2.41,2.41,0,0,1,0,.5c-.47,2.75-.88,5.52-1.42,8.26a5.6,5.6,0,0,1-3.66,4,2.27,2.27,0,0,1-.9.15c-2,0-4.08-.08-6.12-.13a1.42,1.42,0,0,1-.2,0v-.14" transform="translate(-857.36 -318.3)"/><path d="M885.45,387.53a2.59,2.59,0,0,1,.47-1.95l-.33,2h-.14" transform="translate(-857.36 -318.3)"/><path d="M933.8,395.77c0,.4.05.73.07,1.16l-3.25.61c0-.42-.07-.76-.1-1.15l3.28-.62" transform="translate(-857.36 -318.3)"/><path d="M884.52,406.17c0-.2,0-.34-.06-.48s0-.41,0-.68l3.25-.61v1.17l-3.19.6" transform="translate(-857.36 -318.3)"/><path d="M950.84,355.52a3.34,3.34,0,0,0-.17.44c-.13.41-.21.83-.37,1.22a2.27,2.27,0,0,0-.18,1.17c.09,1.3.19,2.6.28,3.9.05.69.11,1.37.15,2.06,0,.34.23.47.52.58a.62.62,0,0,0,.77-.11,3,3,0,0,0,.88-1.75c.12-.77.26-1.54.39-2.31.16-1,.32-2,.47-2.9a15.74,15.74,0,0,1-1.54-1,12.83,12.83,0,0,1-1.2-1.32" transform="translate(-857.36 -318.3)"/><path d="M942.18,374.61l-.17,0a1.81,1.81,0,0,0-.18.21,14,14,0,0,0-1.67,4.11,2,2,0,0,0,.18,1,.48.48,0,0,0,.88.1,3.61,3.61,0,0,0,.22-.44,6.49,6.49,0,0,0,.78-4,7.47,7.47,0,0,1,0-.95" transform="translate(-857.36 -318.3)"/></g><g class="cls-2"><path d="M925.62,364.71c.06-.14.1-.29.17-.44q2.07-4.51,4.16-9c.1-.21.21-.42.31-.64a1.73,1.73,0,0,1,1.36-1c2.58-.49,5.16-1,7.73-1.53a.69.69,0,0,1,.51.08l-2.21.47c-2,.42-3.93.86-5.91,1.23a1.68,1.68,0,0,0-1.33,1c-.73,1.56-1.47,3.13-2.21,4.69s-1.51,3.22-2.27,4.83l-.19.37-.12,0" transform="translate(-857.36 -318.3)"/><path d="M911.87,366.19q-1.12,6.58-2.27,13.17c-.29,1.66-.61,3.31-.91,5,0,.16,0,.34-.24.36h0q.6-3.54,1.21-7.07,1-5.53,2-11.05c0-.14.14-.25.22-.38Z" transform="translate(-857.36 -318.3)"/><path d="M925.28,383q.75-5,1.48-9.93l.15,0c-.09.74-.17,1.49-.28,2.23-.37,2.45-.76,4.9-1.14,7.36,0,.11-.14.2-.22.3Z" transform="translate(-857.36 -318.3)"/><path d="M916.73,385.27c-.07-.08-.19-.15-.2-.24q-.67-4.3-1.34-8.61v0a1.36,1.36,0,0,1,.2.4c.45,2.81.89,5.63,1.34,8.44Z" transform="translate(-857.36 -318.3)"/><path d="M933.88,384.75a49,49,0,0,1,6.56-1.36,47.45,47.45,0,0,1-6.56,1.36" transform="translate(-857.36 -318.3)"/><path d="M881.67,373.57c.31-1.69.63-3.39.93-5.09.16-.88.28-1.78.48-2.66a4.36,4.36,0,0,1,.54-1.21,1.69,1.69,0,0,1,1.24-.74l5.85-1.16,7.18-1.39a.59.59,0,0,1,.42.07l-4.22.89-9.33,1.88a1.8,1.8,0,0,0-1.42,1.59c-.36,1.79-.68,3.58-1,5.38-.14.72-.28,1.44-.43,2.15,0,.11-.16.19-.24.29Z" transform="translate(-857.36 -318.3)"/><path d="M868.32,387.51l2.46-13.61.17,0c-.25,1.49-.49,3-.75,4.47s-.55,3.08-.84,4.61-.59,3-.89,4.52l-.15,0" transform="translate(-857.36 -318.3)"/><path d="M876.34,385.51c.14.23.3.45.42.69,1,1.95,1.93,3.91,2.91,5.85.25.49.55.94.82,1.41l0,0c-.3-.39-.63-.77-.89-1.18a43.65,43.65,0,0,1-3.17-6.48,1.34,1.34,0,0,1,0-.35Z" transform="translate(-857.36 -318.3)"/><path d="M893,384.83c.14-.71.27-1.43.41-2.15q.92-4.79,1.84-9.56a1.56,1.56,0,0,1,1.55-1.47l1.9-.31c.7-.11,1.09.24,1,1s-.28,1.54-.42,2.31c-.56,3.1-1.12,6.21-1.7,9.31a1.43,1.43,0,0,1-1.41,1.42l-2.1.37a.83.83,0,0,1-1.06-.87" transform="translate(-857.36 -318.3)"/><path d="M889.35,384.28q1.14-7.71,2.74-15.34c-.78,5.14-1.67,10.26-2.74,15.34" transform="translate(-857.36 -318.3)"/><path d="M900.09,376.64l-.66,3.84c-.24,1.42-.48,2.84-.74,4.26a2.71,2.71,0,0,1-.34.85.59.59,0,0,1-.73.3c.69-.25.8-.8.89-1.35.4-2.28.79-4.57,1.19-6.85,0-.28.09-.56.16-.83,0-.09.15-.14.23-.21Z" transform="translate(-857.36 -318.3)"/><path d="M958,371.81c.82-4.73,1.62-9.32,2.41-13.94l.77-.2c.92-.22,1.84-.45,2.76-.65.69-.14,1,.16.87.86-.45,2.63-.91,5.27-1.37,7.9-.21,1.21-.43,2.43-.64,3.64a1.85,1.85,0,0,1-1.47,1.62c-1.06.26-2.12.49-3.33.77" transform="translate(-857.36 -318.3)"/><path d="M954.75,368.14l.78-4.53c.44-2.64.89-5.28,1.31-7.92a1.51,1.51,0,0,1,1.12-1.34c.95-.26,1.93-.42,2.91-.62,0,0,.08,0,.21.09-.91.22-1.75.44-2.6.62a1.61,1.61,0,0,0-1.43,1.49c-.61,3.77-1.28,7.52-2,11.27-.05.31,0,.72-.33.94Z" transform="translate(-857.36 -318.3)"/><path d="M963.6,370.32l1.62-9.57.17,0c-.43,3.22-1,6.41-1.61,9.6l-.18-.05" transform="translate(-857.36 -318.3)"/><path d="M944.15,367.45,941.62,369c0-.12,0-.21,0-.29.56-1.71,1.12-3.41,1.7-5.11.09-.27.13-.7.54-.61s.23.48.23.74c0,1.26,0,2.51,0,3.75" transform="translate(-857.36 -318.3)"/><path d="M936.58,372c.33-.94.64-1.88,1-2.8,1.22-3.18,2.46-6.36,3.69-9.53a2,2,0,0,1,.44-.74c-.08.22-.16.44-.25.66q-2.25,5.9-4.52,11.79a4.3,4.3,0,0,1-.38.6Z" transform="translate(-857.36 -318.3)"/><path d="M950.93,367.92a6.64,6.64,0,0,0-3.31-.83,3.42,3.42,0,0,1,3.31.83" transform="translate(-857.36 -318.3)"/><path d="M945.12,364.45V367H945v-2.56l.08,0" transform="translate(-857.36 -318.3)"/><path d="M945.24,370.18c.15,1.7.16,3.41.15,5.2a20.63,20.63,0,0,1-.15-5.2" transform="translate(-857.36 -318.3)"/><path d="M906.13,364.33a4.3,4.3,0,0,0,2.75-1.37c0,.22,0,.45,0,.67-.51,3-1,5.93-1.55,8.9a2.46,2.46,0,0,1-1,1.68c.09-.64.18-1.27.28-1.91.25-1.64.52-3.27.78-4.91a2.94,2.94,0,0,0-.51-2c-.18-.3-.39-.59-.69-1" transform="translate(-857.36 -318.3)"/><path d="M933.93,369.32a105.54,105.54,0,0,1,1.9-10.4l1.79,1.57c0,.15-.1.35-.17.55l-3,7.69" transform="translate(-857.36 -318.3)"/><path d="M950.84,355.52a12.83,12.83,0,0,0,1.2,1.32,15.74,15.74,0,0,0,1.54,1c-.15.95-.31,1.93-.47,2.9-.13.77-.27,1.54-.39,2.31a3,3,0,0,1-.88,1.75.62.62,0,0,1-.77.11c-.29-.11-.5-.24-.52-.58,0-.69-.1-1.37-.15-2.06-.09-1.3-.19-2.6-.28-3.9a2.27,2.27,0,0,1,.18-1.17c.16-.39.24-.81.37-1.22a3.34,3.34,0,0,1,.17-.44" transform="translate(-857.36 -318.3)"/><path d="M888.36,371.52a2.52,2.52,0,0,1,.14.48c0,1.67-.93,5.72-1.35,6.21a37.53,37.53,0,0,1,1.21-6.69" transform="translate(-857.36 -318.3)"/><path d="M942.18,374.61a7.47,7.47,0,0,0,0,.95,6.49,6.49,0,0,1-.78,4,3.61,3.61,0,0,1-.22.44.48.48,0,0,1-.88-.1,2,2,0,0,1-.18-1,14,14,0,0,1,1.67-4.11,1.81,1.81,0,0,1,.18-.21l.17,0" transform="translate(-857.36 -318.3)"/><path d="M975.47,361.63l-3.68,3.14a5.64,5.64,0,0,0-2,3.63c-.2,1.31-.44,2.62-.71,3.92a7.06,7.06,0,0,1-1.87,3.53,4.45,4.45,0,0,1-2.51,1.36c-3.65.7-7.3,1.44-10.94,2.18-1.65.34-3.28.74-4.92,1.12a4.67,4.67,0,0,0-.45.15c0,.6-.05,1.14-.12,1.67-.11.8-.25,1.6-.41,2.39a3.12,3.12,0,0,1-2.66,2.6L926.84,391c-.72.15-1.44.31-2.16.43a2.39,2.39,0,0,1-2-.56c-.46-.37-.86-.81-1.31-1.25a2.58,2.58,0,0,0-.25.42c-.16.37-.31.74-.46,1.12-.51,1.27-.5,1.28-1.83,1.66a4.91,4.91,0,0,1-3.93-.3.82.82,0,0,1-.49-.7c-.14-1.09-.3-2.17-.45-3.24a.82.82,0,0,0-.27-.48c-.06.25-.13.49-.19.75-.23,1.06-.5,2.12-.68,3.19a6.13,6.13,0,0,1-2.84,4.18,10.73,10.73,0,0,1-9.83,1.36,7.05,7.05,0,0,1-.85-.37c-2.52-1.26-5-2.51-7.56-3.78a1.8,1.8,0,0,0-1.3-.18c-.37.08-.75.13-1.12.19a1.89,1.89,0,0,1-1.62-.57c-.63-.57-1.18-1.23-1.76-1.85-.13-.13-.24-.28-.46-.54a4.1,4.1,0,0,0,0,.51,5.9,5.9,0,0,0,2.59,3.7,13.43,13.43,0,0,0,1.49.82l7,3.31a1.12,1.12,0,0,1,.48.39c-.46,0-.91.06-1.37.07l-4.48.05c-2.33,0-4.66.06-7,.14a4.89,4.89,0,0,1-2.33-.49,13.24,13.24,0,0,1-5.44-4.78,3.57,3.57,0,0,1-.35-.77l-1.4-3.66c-.07-.19-.16-.38-.3-.69a2.33,2.33,0,0,0-.22.51c-.3,1.68-.58,3.37-.89,5a4.1,4.1,0,0,1-.43,1c-.06.12-.19.21-.26.33a3.22,3.22,0,0,1-2.48,1.5c-2.83.42-5.65,1-8.47,1.45a1.8,1.8,0,0,1-.27,0c.09-.19.16-.36.25-.51.76-1.28,1.5-2.58,2.29-3.85a5.5,5.5,0,0,0,.81-2.24c.16-1.27.4-2.53.61-3.8,0-.18,0-.36,0-.61L860,386.49c.33-.19.53-.31.73-.41,1.28-.67,2.57-1.33,3.85-2a3.22,3.22,0,0,0,1.83-2.45c.3-1.75.7-3.49,1.05-5.23,0-.11,0-.23,0-.41-2-.75-3.06-2.59-4.55-4.11,1-.26,2-.49,2.88-.7l8.23-1.94a3.87,3.87,0,0,1,2.83.3,2.44,2.44,0,0,1,1.27,1.54c.13.45.28.88.42,1.33l.16,0c.11-.56.23-1.13.33-1.7.3-1.66.56-3.32.89-5a5.91,5.91,0,0,1,3.33-4.51,9.59,9.59,0,0,1,2.05-.57q10.92-2.22,21.86-4.41l7.52-1.5a3.15,3.15,0,0,1,2.73.68,3.91,3.91,0,0,1,1.46,2.52c.44,3.12.94,6.23,1.42,9.35a6.42,6.42,0,0,0,.21.67c.18-.35.31-.56.41-.79l6.29-13.31a5.7,5.7,0,0,1,1.16-1.78,3.89,3.89,0,0,1,1.91-1c5.69-1.22,11.38-2.48,17.07-3.71a4.24,4.24,0,0,1,4.15,1.09,29.43,29.43,0,0,1,2,2.33,4.6,4.6,0,0,1,.55.83.68.68,0,0,0,.88.36c1.24-.28,2.5-.52,3.75-.78l9.18-1.9a2.27,2.27,0,0,1,1.45.26,6.83,6.83,0,0,1,2.81,2.65,2.34,2.34,0,0,1,.26,1.65c-.29,1.73-.57,3.47-.86,5.19l-.35,2,4.74.2c-.2.19-.31.32-.45.44M972,366.11l-.1-.15,2.58-2.2c.08.29.14.48.22.73l-2.7,1.62m-15.11,26.51,4.39-.8c.06,1.15.12,2.28.19,3.49l-5.47,1c0-.39,0-.73-.08-1.15l4.31-.83v-1.17l-4.37.8c-.06-1.17-.13-2.3-.2-3.49l5.46-1c0,.37.08.69.13,1.1-1.44.41-2.92.52-4.42.91,0,.36,0,.7.06,1.13m-1.77.35c0,.4,0,.74.07,1.15l-4.3.82v1.12c1.46-.13,2.84-.53,4.35-.74,0,.37.06.7.09,1.14l-5.46,1c-.18-1.95-.23-3.86-.33-5.84l5.45-1c0,.39.06.73.09,1.15l-4.33.84v1.16l4.37-.8m-10.38,4.24c1.48-.13,2.86-.54,4.33-.73,0,.19.07.37.08.54s0,.33,0,.59l-5.42,1c-.17-1.95-.24-3.86-.33-5.84l5.45-1c0,.39,0,.73.08,1.15l-4.38.85c.06,1.15.13,2.26.19,3.44m-3.09-4.07,1-.2a29,29,0,0,1,.37,5.83l-1,.16c-.1-2-.2-3.87-.3-5.79m-6.46,1.21,1.23-.25,2,3.27c.13-.3.24-.51.33-.72.36-.88.73-1.75,1.06-2.63.17-.44.38-.75.9-.72a2.57,2.57,0,0,0,.6-.11c-.92,2.25-1.8,4.4-2.74,6.72-1.18-1.94-2.27-3.71-3.39-5.56m.29,5.81c-.52.1-.94.22-1.37.26-.16,0-.34-.15-.48-.26l-2.3-1.9-.72-.56c0,1.19.11,2.24.16,3.35l-1.09.2c-.1-1.94-.21-3.84-.32-5.83l5.49-1c.07,1.2.13,2.32.2,3.48l-1.76.37c.68.69,1.44,1.2,2.19,1.91m-6.65-2.27c0,.39.06.73.09,1.14l-4.41.85c0,.38,0,.73.07,1.15l4.36-.79c0,.39.07.73.11,1.14l-5.51,1c-.11-2-.21-3.88-.32-5.84l5.48-1v1.16l-4.24.82v1.15l4.37-.79m-10.51,1.95,4.24-.78a10.93,10.93,0,0,1,.26,3.49l-5.42,1v-1.17l4.29-.82c0-.21,0-.39,0-.58s0-.32-.06-.57l-4.35.79c-.07-1.2-.13-2.31-.2-3.49l5.47-1c0,.41.07.75.11,1.14l-4.41.85c0,.38,0,.72.07,1.15m-7.45,2.6c0,.41,0,.74.06,1.14l4.36-.79c0,.39.07.72.11,1.15l-5.52,1c-.1-2-.21-3.89-.31-5.84l5.47-1v1.16l-4.24.81v1.12c1.5-.14,2.9-.55,4.39-.74v1.14m-7.33-2.13,1.06-.2c.12,2.2.24,4.31.36,6.61-1.61-1.25-3-2.5-4.62-3.78.06,1.35.12,2.55.17,3.8l-1.08.21c-.12-2.18-.24-4.31-.35-6.43l.15-.09,4.39,3.62c.15-1.29-.14-2.47-.08-3.74m-6.17,1.14,1.09-.19c.11,2,.21,3.84.32,5.8l-1.09.23c-.11-2-.22-3.88-.32-5.84m-6.14,1.15,1.08-.2c.14,1.55.15,3.05.29,4.64l4.35-.79c0,.39,0,.73.08,1.15l-5.48,1c-.11-2-.21-3.86-.32-5.84m65.86-4.58a46.57,46.57,0,0,1-9.58,13.93,47.63,47.63,0,0,1-24.09,13.09c-6,1.29-16.13,1.26-19.32-.05l4-4.3c2.45,1.85,5,3,8.33,2.42a23.6,23.6,0,0,0-3.33-2.23,15.89,15.89,0,0,0-3.72-1.36l1.19-1,.64.51a16.55,16.55,0,0,0,3.09,2,5.05,5.05,0,0,0,2.83.54,6.46,6.46,0,0,0,.88-.21,3.78,3.78,0,0,0-1.15-1c-.38-.29-.77-.56-1.17-.82s-.84-.54-1.28-.77a12.4,12.4,0,0,0-1.29-.58c-.46-.18-.93-.31-1.42-.48.3-.37.61-.56,1-.34s1.14.57,1.69.88c.89.49,1.75,1,2.66,1.5a3,3,0,0,0,1.72.34,6,6,0,0,0,.7-.15,25.58,25.58,0,0,0-5.39-3.69,1.13,1.13,0,0,1,.23-.17l.72-.35c1.63,1.56,3.35,2.89,5.79,2.7-1.42-1.1-2.48-2.63-4.27-3.29.61-.41.61-.41,1,0a6.58,6.58,0,0,0,3.75,2.17,2.72,2.72,0,0,0,.72-.05c-.63-.59-1.17-1.12-1.74-1.62s-1.14-.91-1.75-1.39l.55-.26c1.23,1.15,2.37,2.39,4.27,2.69a13.55,13.55,0,0,0-3-3.11.47.47,0,0,1,.72,0c.41.33.8.67,1.2,1a3.46,3.46,0,0,0,2.29,1c.09,0,.17,0,.33-.05a6,6,0,0,0-2.72-2.62c.09-.26.24-.21.4-.11a10.93,10.93,0,0,0,1.07.7c.7.34,1.41.67,2.14.94a2.33,2.33,0,0,0,1.06,0,22,22,0,0,0-2.93-2.48,3.4,3.4,0,0,1,1.49.51c.5.27,1,.54,1.52.78a1.89,1.89,0,0,0,1.37,0,4.33,4.33,0,0,0-2.7-1.87.61.61,0,0,1,0-.14,1,1,0,0,1,.47-.06c.42.15.82.35,1.23.53s1,.45,1.5.62a3.65,3.65,0,0,0,1,0,5,5,0,0,0-2.4-1.89c.18-.26.37-.15.55-.07l1.63.71a2,2,0,0,0,1.28.06c-.53-.88-1.43-1-2.16-1.45.22-.32.48-.15.71-.07.43.15.84.33,1.26.48a1.2,1.2,0,0,0,1.11-.19c-.22-.36-.59-.41-.9-.56s-.64-.25-1-.38c.13-.33.31-.31.54-.25a10.78,10.78,0,0,0,1.25.29,1,1,0,0,0,1.08-.24c-.48-.55-1.2-.41-1.76-.67.09-.35.35-.32.62-.29.42,0,.85.08,1.27.09a2.3,2.3,0,0,0,.54-.12c-.12-.38-.42-.36-.65-.44s-.5-.11-.75-.22c.6-.38,1.38,0,2-.48-.33-.4-.8-.23-1.27-.37.56-.45,1.34-.31,1.9-.9h-1.19c.37-.47,1.08-.31,1.38-.94l-.83.07.49-.41v-.89c-.26.05-.26.67-.75.36l-.23.6c-.07-.14-.13-.29-.22-.5-.48.4-.18,1-.51,1.37v-1c-.6.56-.39,1.26-.72,1.8v-1.24c-.57.16-.57.59-.62,1s-.09.77-.17,1.15l-.17,0v-1.75c-.55.38-.49.88-.58,1.32s-.17.91-.28,1.49c-.32-.45-.07-.78-.08-1.1s0-.64.08-1a.5.5,0,0,0-.64.47c-.14.57-.21,1.16-.31,1.75a1.05,1.05,0,0,1-.16.47c-.3-.72.26-1.47-.11-2.18-.43,0-.52.31-.58.58-.11.56-.19,1.12-.29,1.68a2.09,2.09,0,0,1-.23.72c-.3-.42,0-.83,0-1.24a12.7,12.7,0,0,1,.13-1.3.89.89,0,0,0-.82.78c-.15.54-.22,1.11-.35,1.67-.06.27,0,.6-.42.78L931,406a1,1,0,0,0-.74.74c-.19.71-.34,1.42-.51,2.14a2.88,2.88,0,0,1-.17.61,1.05,1.05,0,0,1-.41.43,29.75,29.75,0,0,0,.26-3.42,1.6,1.6,0,0,0-1,1.17c-.2.7-.31,1.43-.46,2.15a2.4,2.4,0,0,1-.11.48.61.61,0,0,1-.46.24c.07-.5.14-1,.2-1.51a11.92,11.92,0,0,0,.15-1.2,6.67,6.67,0,0,0-.06-.86,1.29,1.29,0,0,0-.95,1,22.9,22.9,0,0,0-.47,2.58c-.05.4-.16.63-.68.63.1-.7.21-1.39.31-2.07.06-.43.13-.85.16-1.27a5.24,5.24,0,0,0-.07-.74,2.07,2.07,0,0,0-1.12,1.48c-.15.59-.22,1.21-.32,1.82a8,8,0,0,0-.12,1c0,.34-.21.44-.56.48a39.92,39.92,0,0,0,.53-4.51c-.54,0-.73.31-.91.63a7,7,0,0,0-.79,2.86c0,.3,0,.61,0,.92,0,.63,0,.63-.8.85a13.83,13.83,0,0,0,.47-4.62,1.24,1.24,0,0,0-.87.72,7,7,0,0,0-.58,1.52,21.1,21.1,0,0,0-.31,2.39c-.06.66,0,.68-.85.82a13,13,0,0,0,.34-5,1.23,1.23,0,0,0-.81.7,6,6,0,0,0-.64,1.64,18.22,18.22,0,0,0-.21,2.76c0,.78,0,.78-.72,1.07.11-1.92.22-3.85.34-5.83a1.19,1.19,0,0,0-.81.59,5.57,5.57,0,0,0-1,3c-.09.92-.1,1.85-.13,2.77,0,.6,0,.6-.7.92a24.11,24.11,0,0,0,.05-6.52,3.11,3.11,0,0,0-1.2,1.47,6.63,6.63,0,0,0-.53,2.91c0,.86.11,1.71.18,2.56q0,.35.06.72l-1.06.8-.15-.08a21,21,0,0,0-.27-7.53,1.39,1.39,0,0,0-.77.77,6.19,6.19,0,0,0-.74,2.73,19.37,19.37,0,0,0,.22,4.75,1,1,0,0,1-.4,1.1,30.58,30.58,0,0,0-3.82,3.73.65.65,0,0,1-.78.25,47.76,47.76,0,0,1-19.1-9.88c-.61-.53-1.2-1.08-1.8-1.62-.12-.11-.21-.24-.39-.44l76.5-14.61M895,404.23v1.15l-4.23.81v1.16l4.35-.79c0,.39,0,.71.08,1.12-1.8.42-3.6.7-5.49,1.05-.1-2-.2-3.84-.31-5.83l5.39-1c.2.33.11.69.16,1.1-1.42.39-2.88.52-4.33.88V405l4.38-.79m-5.7,4.47c-.08.08-.11.13-.14.14-1.24.28-1.24.27-2.21-.53l-2.43-2c.05,1.2.09,2.26.13,3.36l-1.08.21c-.1-2-.2-3.88-.3-5.83l5.48-1c.07,1.2.12,2.33.18,3.48l-1.78.39,2.15,1.81m86.76-33.85a36.11,36.11,0,0,1,0,6.15l-2.94.78c-.55.14-1.1.3-1.66.41a.53.53,0,0,0-.48.51c-.26,1.95-.53,3.89-.82,5.95l4.36,2.69a54.49,54.49,0,0,1-1.76,5.87l-5.16-.14-2.7,5.8c1.11,1.24,2.26,2.53,3.48,3.88-1.12,1.71-2.22,3.39-3.34,5.12l-5-1.63-4.23,4.81c.72,1.51,1.45,3.05,2.22,4.64a52.73,52.73,0,0,1-4.67,4l-4.24-2.93-5.42,3.43c.27,1.64.54,3.34.83,5.14L939,431.85l-3.28-4.05-6.16,1.76c-.21,1.69-.43,3.38-.65,5.11a54,54,0,0,1-6.09.83l-2-4.79H914.4c-.67,1.53-1.36,3.11-2,4.71a51.68,51.68,0,0,1-6.09-.91c-.19-1.75-.38-3.44-.57-5.12l-6.13-1.84-3.3,3.94a52.79,52.79,0,0,1-5.58-2.58c.3-1.72.6-3.41.89-5.08l-5.36-3.5-4.27,2.86a52.63,52.63,0,0,1-4.63-4.05c.78-1.57,1.53-3.09,2.31-4.65l-.42-.48c-1.09-1.28-2.19-2.55-3.28-3.84-.44-.53-.43-.54-1.12-.33L871,411c-.16.05-.32.08-.57.14-1.07-1.7-2.15-3.39-3.25-5.13l3.56-3.85c-.57-1.21-1.12-2.38-1.7-3.63a18.86,18.86,0,0,1,1.87-.35,2.25,2.25,0,0,0,1.93-1.09c0-.06.1-.1.2-.19a4.93,4.93,0,0,1,.28.48A48.8,48.8,0,0,0,907,425.17a39.68,39.68,0,0,0,7.51,1.1c2.06.07,4.13.17,6.19.07a44.86,44.86,0,0,0,8.77-1.3,49,49,0,0,0,36.59-38.55,44.36,44.36,0,0,0,.8-8.21,1.62,1.62,0,0,1,.62-1.39,8.05,8.05,0,0,0,2.61-4.7,16.68,16.68,0,0,1,.57-2.45c.15,1.24.29,2.47.45,3.75l5,1.36M861.24,390.56l3-1.82c-.14.93-.25,1.7-.38,2.47-.06.42-.17.84-.21,1.26a6.87,6.87,0,0,1-1.15,2.37l-.16,0-1.15-4.26m1.65-17.29c1.13,1.09,2,2.54,3.55,3.26-.37,1.86-.74,3.68-1.12,5.51,0,.12-.14.23-.3.48-.07-.41-.12-.66-.17-1l-5-1.37c-.1-2.07-.08-4.09,0-6.14m1.59-10.33a47.69,47.69,0,0,1,1.76-5.89l5.15.15,2.7-5.8c-1.12-1.26-2.28-2.54-3.48-3.88l3.33-5.11,1.53.48c1,.33,2,.66,3,1a.57.57,0,0,0,.73-.19c1.24-1.44,2.5-2.86,3.75-4.28a1,1,0,0,0,.14-.23l-2.22-4.63a53.2,53.2,0,0,1,4.67-4l4.24,2.92,5.41-3.42c-.26-1.64-.53-3.34-.81-5.08a51.35,51.35,0,0,1,5.61-2.52l3.24,4,6.15-1.76c.08-.61.18-1.26.26-1.92.11-.91.22-1.83.32-2.75,0-.3.13-.49.46-.53l5.35-.72a2.19,2.19,0,0,1,.37,0c.66,1.6,1.32,3.17,2,4.77h6.39q1-2.26,2-4.69a42.16,42.16,0,0,1,6.1.91c.12,1.06.23,2.07.34,3.08.06.54.12,1.08.17,1.63a.53.53,0,0,0,.42.56l5.79,1.66,3.27-3.92a51.29,51.29,0,0,1,5.59,2.58c-.31,1.73-.6,3.4-.9,5.1.16.11.29.21.43.29,1.46,1,2.94,1.91,4.4,2.88.5.32.49.34,1,0l3.19-2.14c.2-.14.4-.26.64-.41a48.87,48.87,0,0,1,4.62,4.05c-.78,1.56-1.54,3.08-2.32,4.66.31.33.62.65.91,1,1,1.12,1.9,2.24,2.85,3.37.38.47.38.48.94.3L965,344c.15-.05.31-.07.54-.13l2.77,4.29c-3.31.72-6.52,1.33-9.73,2a55.58,55.58,0,0,0-3.83-4.92l-83.32,17.48a51.89,51.89,0,0,0-1.62,6.5l-4.55,1.08c.23-1.36.44-2.61.65-3.89l-4.39-2.71m111.3-5.11a.36.36,0,0,1,.27.16c.15.41.28.83.44,1.31h-1.07a3.58,3.58,0,0,1,.17-1.31.28.28,0,0,1,.19-.16m2,1.49c-.14-.41-.31-.8-.41-1.21a1.77,1.77,0,0,0-1.5-1.6c0-.31.08-.56.12-.82a13.77,13.77,0,0,0,.35-3.38,3.7,3.7,0,0,0-.39-1.49,8.29,8.29,0,0,0-2.69-2.71,1.76,1.76,0,0,1-.61-.66c-1-1.57-1.95-3.14-3-4.69-.62-1-1-1.08-2.1-.74l-3.12,1c-.59.19-.59.18-1-.31-.53-.64-1.06-1.28-1.6-1.91-.37-.42-.74-.84-1.07-1.23.62-1.24,1.23-2.45,1.82-3.66a1.35,1.35,0,0,0-.35-1.85c-1.27-1.15-2.55-2.27-3.83-3.4-1.06-.94-1.48-1.13-2.86-.14-.94.68-1.92,1.3-2.86,1.94l-4-2.62c.25-1.39.5-2.71.71-4.05a1.25,1.25,0,0,0-.82-1.62q-2.6-1.24-5.22-2.42a1.37,1.37,0,0,0-1.88.48l-2.19,2.63c-.13.16-.28.3-.4.43l-4.54-1.37c-.15-1.37-.3-2.71-.46-4.05a1.35,1.35,0,0,0-1.27-1.38c-.7-.13-1.4-.27-2.1-.37-1.25-.18-2.49-.34-3.74-.49a1.3,1.3,0,0,0-1.42.85l-.39.91c-.43,1-.85,2-1.28,2.92H916c-.11-.26-.22-.49-.32-.73-.44-1-.86-2.11-1.31-3.15a1.26,1.26,0,0,0-1.46-.87q-2.92.38-5.85.79a1.32,1.32,0,0,0-1.25,1.32c-.11.87-.2,1.75-.32,2.62-.06.47,0,1.07-.26,1.36s-.89.36-1.36.5l-3.15.9L900,325l-1.92-2.38a1.28,1.28,0,0,0-1.58-.49q-2.84,1.23-5.64,2.54a1.24,1.24,0,0,0-.7,1.42c.11.66.23,1.31.34,2s.23,1.49.34,2.19l-4,2.55-.44-.29-2.93-2a1.25,1.25,0,0,0-1.7,0c-1.57,1.3-3.11,2.64-4.66,4a1.3,1.3,0,0,0-.31,1.56,6.39,6.39,0,0,0,.31.65c.51,1.06,1,2.13,1.53,3.18l-3.15,3.58-.75-.22c-1-.35-2.06-.71-3.1-1a1.31,1.31,0,0,0-1.71.47q-1.68,2.51-3.3,5.06a1.27,1.27,0,0,0,.19,1.7c.32.36.64.7,1,1.05.62.68,1.23,1.37,1.81,2l-2,4.3h-1c-1,0-2-.09-3.06-.11a1.29,1.29,0,0,0-1.48,1c-.61,1.92-1.18,3.85-1.74,5.79a1.26,1.26,0,0,0,.6,1.47c.5.32,1,.62,1.51.93l2.11,1.31c-.2,1.21-.39,2.37-.58,3.54l-2.73.67.72.94-.56.18c-.55.14-1.1.27-1.65.43a1.28,1.28,0,0,0-1,1.21c0,2-.08,3.94-.06,5.91,0,1,.31,1.3,1.31,1.58s1.88.49,2.81.75c.34.09.67.2,1,.31,0,.29,0,.52,0,.77-2.15,1.18-4.33,2.23-6.42,3.54l5.39,1.32c-.79.48-1.41.86-2,1.23a1.23,1.23,0,0,0-.64,1.32,2.81,2.81,0,0,0,.09.49c.42,1.5.82,3,1.27,4.51a1.31,1.31,0,0,1-.14,1.2c-.56.88-1.08,1.79-1.61,2.69-.09.15-.15.32-.28.6l8.4-1.45,1.46,3.18c-.92,1-1.83,2-2.72,3a1.38,1.38,0,0,0-.21,2c1,1.57,2,3.14,3,4.69a1.39,1.39,0,0,0,1.94.68l3.25-1c.56-.18.56-.17.94.29s1,1.21,1.51,1.8.78.89,1.18,1.35c-.12.25-.21.46-.32.67-.49,1-1,2-1.48,3a1.32,1.32,0,0,0,.32,1.85c1.38,1.24,2.76,2.47,4.16,3.68.86.73,1.27.72,2.23.08l3.18-2.14,4,2.6c0,.23,0,.47-.09.7-.2,1.12-.41,2.24-.61,3.36a1.29,1.29,0,0,0,.76,1.59q2.65,1.28,5.35,2.48a1.3,1.3,0,0,0,1.77-.44c.51-.59,1-1.2,1.5-1.8L900,429l4.54,1.37c0,.26.1.49.13.73.11,1,.22,2.07.32,3.11s.4,1.41,1.45,1.61c.63.12,1.25.25,1.89.35,1.22.17,2.44.35,3.66.48a1.32,1.32,0,0,0,1.62-.95c.19-.41.35-.83.53-1.24.36-.83.73-1.65,1.09-2.47h4.73c.1.22.2.41.28.6.46,1.1.91,2.2,1.38,3.28a1.25,1.25,0,0,0,1.45.88q2.9-.37,5.78-.8a1.33,1.33,0,0,0,1.33-1.32c.08-.57.13-1.14.2-1.7q.15-1.2.3-2.37l4.58-1.31.46.55c.7.87,1.4,1.74,2.11,2.6a1.29,1.29,0,0,0,1.81.47q2.64-1.14,5.25-2.35a1.27,1.27,0,0,0,.87-1.6c-.1-.77-.26-1.54-.38-2.32-.09-.6-.18-1.2-.26-1.77l4-2.55c1.15.8,2.25,1.57,3.37,2.33a1.23,1.23,0,0,0,1.7,0c1.57-1.3,3.11-2.64,4.65-4a1.25,1.25,0,0,0,.3-1.56c-.18-.41-.39-.81-.59-1.21-.41-.88-.83-1.75-1.24-2.61l3.16-3.58,1.15.37c.9.3,1.8.62,2.7.9a1.37,1.37,0,0,0,1.79-.59c.15-.19.29-.38.42-.58.91-1.41,1.84-2.82,2.72-4.25a1.34,1.34,0,0,0-.18-1.87l-.25-.26-2.46-2.74c.67-1.46,1.33-2.88,2-4.32.31,0,.62,0,.92,0,1.09,0,2.18.09,3.28.12a1.28,1.28,0,0,0,1.36-.93c.61-1.94,1.19-3.9,1.76-5.85a1.22,1.22,0,0,0-.56-1.42c-.49-.33-1-.63-1.51-.94L971.49,388c0-.17,0-.32,0-.45.19-1.29.4-2.58.57-3.87a.52.52,0,0,1,.48-.51c1.17-.29,2.34-.6,3.51-.91a1.39,1.39,0,0,0,1.24-1.57c0-1.89,0-3.79,0-5.69a1.27,1.27,0,0,0-1.07-1.39c-.66-.2-1.32-.37-2-.55l-2-.57c-.22-1.62-.43-3.19-.64-4.73,1.23-.73,2.4-1.42,3.55-2.12a1.28,1.28,0,0,0,.68-1.62,5.47,5.47,0,0,0-.13-.55.8.8,0,0,1,.31-1c.73-.57,1.42-1.19,2.12-1.79.11-.1.19-.23.37-.43l-3.71-.13" transform="translate(-857.36 -318.3)"/><path d="M926,352.37l1.69-.34a1.09,1.09,0,0,1,.08-.2,3,3,0,0,0-1.77.54" transform="translate(-857.36 -318.3)"/><path d="M874,358.87a3.86,3.86,0,0,0,.16-.48c.2-.57.36-1-.13-1.32-.36.74-.7,1.49-1,2.25.34-.05.4-.17.82-.24a1.2,1.2,0,0,0,.16-.21" transform="translate(-857.36 -318.3)"/><path d="M872.17,362.88l2.81-.55a8.37,8.37,0,0,0-1.2.11,7.92,7.92,0,0,0-1.61.44" transform="translate(-857.36 -318.3)"/><path d="M874.61,357.19c.18-.33.36-.62.5-.93a.3.3,0,0,0-.05-.29c-.19-.17-.09-.29-.29-.44-.18.34-.35.68-.52,1,.24.16.16.35.36.63" transform="translate(-857.36 -318.3)"/><path d="M876.21,354.69a5.53,5.53,0,0,0-.91-.72c-.19.33-.07.71-.26,1,.28.16.25.32.5.57l.67-.9" transform="translate(-857.36 -318.3)"/><path d="M902.76,331.91h0a2.66,2.66,0,0,1,.55.56l.09.12c.18-.33.35-.61.49-.91a.34.34,0,0,0,0-.31l0,0-1.32.42h0a1.64,1.64,0,0,1,.22.14" transform="translate(-857.36 -318.3)"/><path d="M921.27,329.35h-.15l.13.11s0-.06,0-.1" transform="translate(-857.36 -318.3)"/><path d="M899.76,333.23a2.28,2.28,0,0,1,.18-.54l-.56.22.25.22.13.1" transform="translate(-857.36 -318.3)"/><path d="M926.84,330.71c.08,0,.2-.11.25-.2l.22-.41c-.64-.12-1.28-.22-1.93-.32a6.43,6.43,0,0,0-.24.79c.56.05,1.13.11,1.7.14" transform="translate(-857.36 -318.3)"/><path d="M943.58,337.1a5.22,5.22,0,0,1,.34-.62l-1-.59a5.7,5.7,0,0,0-.32.6l1,.61" transform="translate(-857.36 -318.3)"/><path d="M942.08,336.21c.1-.22.21-.43.32-.62-.32-.18-.64-.36-1-.53a6.56,6.56,0,0,0-.36.7l1,.45" transform="translate(-857.36 -318.3)"/><path d="M940.52,335.56c.13-.27.26-.52.41-.77-.34-.17-.68-.35-1-.51-.17.31-.33.64-.48,1l1.1.3" transform="translate(-857.36 -318.3)"/><path d="M945,338.27a3,3,0,0,1,.39-.86c-.32-.21-.65-.43-1-.63a3.6,3.6,0,0,0-.34.68l.93.81" transform="translate(-857.36 -318.3)"/><path d="M945.76,339.13a.93.93,0,0,0,1.35.46h.09a.91.91,0,0,0,.82-.31c-.71-.53-1.43-1-2.17-1.55a1.48,1.48,0,0,0-.3.74,1,1,0,0,0,.21.67" transform="translate(-857.36 -318.3)"/><path d="M928.67,331.14a7.3,7.3,0,0,1,.36-.68l-1.17-.25c-.1.2-.21.41-.3.63l1.11.3" transform="translate(-857.36 -318.3)"/><path d="M930.25,331.8a6.94,6.94,0,0,1,.54-.92l-1.18-.29a6.72,6.72,0,0,0-.4.75l1,.46" transform="translate(-857.36 -318.3)"/><path d="M936.77,333.21l.15-.27-.64-.26a3.11,3.11,0,0,1,.49.53" transform="translate(-857.36 -318.3)"/><path d="M955.72,346.55l-.25-.29c-.23.15-.46.31-.68.48Z" transform="translate(-857.36 -318.3)"/><path d="M879.09,352c.07.07.23.16.3.13.54-.23,1.06-.48,1.6-.74a10.86,10.86,0,0,0-2.45-2.32c-.38.51-.75,1-1.11,1.54a10,10,0,0,1,1.66,1.39" transform="translate(-857.36 -318.3)"/><path d="M925,352.57l1-.2a3,3,0,0,1,1.77-.54,1.89,1.89,0,0,1,.43-.52,3.52,3.52,0,0,0-3.24,1.26" transform="translate(-857.36 -318.3)"/><path d="M937,344.87a2,2,0,0,0-1.59,1.62l-.94-.82a3,3,0,0,1,2.15-1.95,3,3,0,0,1,3,1c-.2.37-.39.71-.59,1.09a2,2,0,0,0-2-1m1.53,2.28a.64.64,0,0,1-.77.63,1.1,1.1,0,0,0-.48.08c-.43.2-.67,0-.95-.31a1.15,1.15,0,0,1-.31-1.13,1.39,1.39,0,0,1,.94-1l.1,0a1.44,1.44,0,0,1,1.63,1.07c0,.21-.14.44-.16.66m-4,1.7a.44.44,0,0,1-.64-.1,8.56,8.56,0,0,0-5.23-2.7,8.38,8.38,0,0,0-8.81,5.19.4.4,0,0,1-.52.3c-.48-.07-1-.09-1.53-.13a10.53,10.53,0,0,1,6.63-6.89,10.33,10.33,0,0,1,11.44,3.71c-.46.21-.91.39-1.34.62m-7.7-6.48c-.06.22-.16.42-.21.64a.32.32,0,0,1-.35.28c-.19,0-.38.07-.58.1-.65.33-1,0-1.39-.51a.93.93,0,0,1-.17-.68,1.4,1.4,0,0,1,1.28-1.24,1.48,1.48,0,0,1,1.45,1.13.54.54,0,0,1,0,.28m-3.26-.3c-.3-.25-.58-.48-.83-.73a.36.36,0,0,1,0-.32,3,3,0,0,1,4.92-.84c.06.05.1.11.16.17l-.59,1.08a2,2,0,0,0-2-1,1.93,1.93,0,0,0-1.6,1.64m-2.39-1.79a4.59,4.59,0,0,1,3.17-2.71,4.66,4.66,0,0,1,4.48,1.36l-.68.9a3.61,3.61,0,0,0-6,1.06l-1-.61M935.61,336c4-.63,7.25,1,9.85,4-.59.27-1.12.53-1.67.77-.06,0-.21-.08-.28-.15a8.92,8.92,0,0,0-3.31-2.24,8.37,8.37,0,0,0-10.63,4.34c-.1.21-.15.5-.32.6s-.46,0-.69,0l-1.23-.07c1.47-3.92,4-6.56,8.28-7.23m-1.83-2.28a1.38,1.38,0,0,1,1-.89,1.43,1.43,0,0,1,1.61,1.07,2.58,2.58,0,0,1-.18.7c-.06.39-.23.6-.67.58a2.86,2.86,0,0,0-.86.17c-.19.05-.32.05-.43-.14a1,1,0,0,0-.24-.3,1,1,0,0,1-.25-1.19m8.5,8.06a6.85,6.85,0,0,0-11.34,2l-1.1-.3a7.86,7.86,0,0,1,13.34-2.35l-.9.64M941,342.91a5.24,5.24,0,0,0-4.68-1.51,5.16,5.16,0,0,0-3.83,3l-.95-.43s0,0-.07-.07a6.21,6.21,0,0,1,4.49-3.67,6.29,6.29,0,0,1,5.85,1.86l-.81.8M940,344.25a3.58,3.58,0,0,0-6,1.06l-1-.61a4.57,4.57,0,0,1,7.59-1.35l-.68.9m-21.42-11.33a6.92,6.92,0,0,0-6.69-2v0a7.11,7.11,0,0,0-2.51,1.24l-.06.05-.31.25c-.13.11-.24.23-.36.35l-.14.15a7.11,7.11,0,0,0-1.24,1.89l-.07.09-1.07-.3.06-.14a9,9,0,0,1,2.39-3.23l.09-.07.31-.24.1-.06a7.85,7.85,0,0,1,10.38,1.41l-.88.63M903,333.5h0a2.25,2.25,0,0,1,0,.22c-.07.22-.17.44-.25.66,0,0-.13.05-.2.06l-.64.12a1.13,1.13,0,0,1-1,0,2.08,2.08,0,0,1-.21-.21.86.86,0,0,0-.07-.1,1.57,1.57,0,0,1-.26-1,1.39,1.39,0,0,1,1.15-1.1,1.09,1.09,0,0,1,.36,0,1,1,0,0,1,.24,0,1.62,1.62,0,0,1,.5.28h0l.11.1a1.58,1.58,0,0,1,.12.15h0a.94.94,0,0,1,.12.22h0a1,1,0,0,1,.06.23h0a1.41,1.41,0,0,1,0,.29m-9.2,7.28c-.09-.12-.19-.23-.28-.34l-.08-.07-.12-.11-.06-.05a1.81,1.81,0,0,0-1.5-.39,2,2,0,0,0-1.6,1.61l-.94-.81a3,3,0,0,1,2.24-2,2.76,2.76,0,0,1,.69-.06,3.06,3.06,0,0,1,1.41.42h0l.25.17.13.1.17.15,0,0,.23.24-.58,1.08m-1.15,1.93h-.06a3.18,3.18,0,0,0-.86.16c-.19.06-.33.05-.43-.13a1.17,1.17,0,0,0-.24-.3,1,1,0,0,1-.25-1.19,1.39,1.39,0,0,1,1-.9,1.3,1.3,0,0,1,.52,0,.71.71,0,0,0,.21.08l.2.08a1.76,1.76,0,0,1,.39.32,1.73,1.73,0,0,1,.25.44l0,.12v.07a3.29,3.29,0,0,1-.17.65.57.57,0,0,1-.51.56l-.11,0v0m9.83,4.84-.93.44-.17.07,0,0-.51.23h0c-.06,0-.2-.08-.27-.15s-.15-.14-.22-.21l-.08-.1-.14-.12c-.17-.15-.34-.31-.52-.45l-.12-.09c-.2-.16-.41-.31-.62-.45l-.16-.09a5.32,5.32,0,0,0-.61-.35,7.43,7.43,0,0,0-.81-.37h0a8.45,8.45,0,0,0-3.47-.55h0a8.45,8.45,0,0,0-7.15,4.88c-.1.21-.15.51-.32.61s-.46,0-.69,0l-1.23-.07c1.47-3.91,4-6.56,8.28-7.22a11,11,0,0,1,1.25-.12,10.67,10.67,0,0,1,8.59,4.13m-3.17,1.77c-.25-.24-.51-.47-.77-.68l0,0a6.67,6.67,0,0,0-5.42-1.39,6.82,6.82,0,0,0-5.12,4.1l-1.1-.31a7.91,7.91,0,0,1,5.78-4.94l.58-.1h0a7.9,7.9,0,0,1,3.82.49,8.25,8.25,0,0,1,2.48,1.51l0,0,.43.43.22.24-.9.65m-1.25,1.16a4.15,4.15,0,0,0-.32-.27l-.13-.12a5.09,5.09,0,0,0-3.82-1.17h0l-.39.05a5.16,5.16,0,0,0-3.83,3l-.95-.43-.07-.07a6.19,6.19,0,0,1,4.49-3.67,6.62,6.62,0,0,1,.74-.11,6.33,6.33,0,0,1,3.91,1l.08,0,.54.4,0,0a5,5,0,0,1,.54.49l-.8.79M897,351.81a3.63,3.63,0,0,0-3.29-1.11,3.56,3.56,0,0,0-2.67,2.17l-.95-.6a4.55,4.55,0,0,1,3.88-2.81h.46l.51.05h0l.41.08.14,0,.3.09.25.1.23.1.3.16.18.11a3.64,3.64,0,0,1,.35.24l.12.09a5.6,5.6,0,0,1,.45.4l-.68.9m-.91,1.58-.12-.14-.05-.06-.09-.1-.11-.11a.52.52,0,0,0-.11-.1l-.06-.06a1.84,1.84,0,0,0-1.51-.38,2,2,0,0,0-1.59,1.61l-.94-.81a3,3,0,0,1,2.15-1.95,2.89,2.89,0,0,1,2.16.33l.09.05.17.11.19.16.13.1s0,0,.05,0l.22.23-.58,1.07m-.52,1.33a.6.6,0,0,1-.59.61h-.05a.66.66,0,0,1-.14,0,1,1,0,0,0-.47.09c-.43.19-.68,0-1-.32a1.12,1.12,0,0,1-.31-1.12,1.42,1.42,0,0,1,.94-1l.1,0a1.46,1.46,0,0,1,.55,0,.93.93,0,0,0,.2.08l.18.08a1.37,1.37,0,0,1,.42.33,1.44,1.44,0,0,1,.23.42.23.23,0,0,1,0,.11.22.22,0,0,1,0,.08c0,.2-.13.41-.15.62m-4,1.7a.44.44,0,0,1-.64-.11,8.5,8.5,0,0,0-5.23-2.69,8.38,8.38,0,0,0-8.81,5.19.4.4,0,0,1-.52.3c-.48-.08-1-.09-1.53-.13a10.48,10.48,0,0,1,6.63-6.89,10.31,10.31,0,0,1,11.44,3.71c-.46.21-.91.39-1.34.62m-1.77,1.11a6.88,6.88,0,0,0-11.41,2l-1.09-.3a7.82,7.82,0,0,1,5.53-4.9,7.92,7.92,0,0,1,7.89,2.53l-.92.66m-1.27,1.16a5.2,5.2,0,0,0-4.68-1.54,5.15,5.15,0,0,0-3.86,3l-1-.45a6.15,6.15,0,0,1,4.53-3.74,6.25,6.25,0,0,1,5.86,1.9c-.28.28-.53.53-.81.79m-4.66-8.75c-.06.21-.16.42-.21.64a.32.32,0,0,1-.35.28,3.7,3.7,0,0,0-.58.1c-.65.33-1,0-1.39-.51a.9.9,0,0,1-.17-.68,1.4,1.4,0,0,1,1.28-1.24,1.48,1.48,0,0,1,1.45,1.13.54.54,0,0,1,0,.28m-3.27-.31c-.29-.25-.57-.47-.82-.72a.38.38,0,0,1,0-.33,3,3,0,0,1,4.92-.83l.16.17-.59,1.08a2,2,0,0,0-2.05-1,2,2,0,0,0-1.61,1.63m22.23,3.44.07,0a6.29,6.29,0,0,1,2.08-.82,6,6,0,0,1,3.94.51,7.7,7.7,0,0,1,1.58,1.09,4.12,4.12,0,0,1,.28.31s0,0,0,.06l-.75.72a6.14,6.14,0,0,0-1.43-1,5,5,0,0,0-3.25-.5,5.15,5.15,0,0,0-3.86,3l-1-.45a6.69,6.69,0,0,1,2.39-2.88m44.69-10.15a7.77,7.77,0,0,1,6.07,1.25c-.45-.47-.91-.92-1.39-1.37a8.32,8.32,0,0,0-10.23,3.4,12.63,12.63,0,0,0-.7,1.37.28.28,0,0,1-.34.19c-.54-.06-1.07-.09-1.63-.14a10.27,10.27,0,0,1,8.11-7.26,10,10,0,0,1,1.87-.13l-1.22-1a.91.91,0,0,1-.82.31l-.09,0a.94.94,0,0,1-1.35-.47,1,1,0,0,1-.21-.67,1.51,1.51,0,0,1,.3-.74l-.47-.31a3,3,0,0,0-.39.86l-.93-.81a3.6,3.6,0,0,1,.34-.68l-.48-.3a5.22,5.22,0,0,0-.34.62l-1-.61a5.7,5.7,0,0,1,.32-.6l-.53-.3c-.11.19-.22.4-.32.62l-1-.45a6.56,6.56,0,0,1,.36-.7l-.5-.27c-.15.25-.28.5-.41.77l-1.1-.3q.23-.51.48-1l-.51-.24q-.2.36-.36.75a.48.48,0,0,1-.62.34A13.14,13.14,0,0,0,937,335a11.35,11.35,0,0,1,.71-1.76l-.74-.31-.15.27a3.11,3.11,0,0,0-.49-.53q-.59-.24-1.2-.45l-.35,0a2,2,0,0,0-1.6,1.61l-.94-.82a3.37,3.37,0,0,1,1.06-1.45l-.63-.2a4.2,4.2,0,0,0-.9,1.29l-1-.6a4.7,4.7,0,0,1,.6-1l-.58-.15a7.32,7.32,0,0,0-.55.91l-1-.46a6.72,6.72,0,0,1,.4-.75l-.58-.13a7.3,7.3,0,0,0-.36.68l-1.11-.3c.09-.22.2-.43.3-.63l-.55-.11-.22.41c-.05.09-.17.21-.25.2-.57,0-1.14-.09-1.7-.14a6.43,6.43,0,0,1,.24-.79l-.86-.12c0,.13-.09.27-.11.41a.67.67,0,0,1-.79.65,1.19,1.19,0,0,0-.26,0c-.63.32-1,0-1.37-.48a1,1,0,0,1-.18-.72,1.16,1.16,0,0,1,0-.18l-.58,0a.44.44,0,0,0,0,.1l-.13-.11-1.3-.06a10,10,0,0,1,1.84,1.89c-.53.25-1.06.51-1.6.74-.07,0-.22-.07-.3-.15a9.19,9.19,0,0,0-3.53-2.31l-.44-.14a49.06,49.06,0,0,0-6.47.72,9.5,9.5,0,0,0-1.74,1.32,8.69,8.69,0,0,0-2,2.91c-.08.19-.15.26-.37.23-.54-.07-1.07-.1-1.66-.14,0,0,0,0,0-.05a13.2,13.2,0,0,1,1.87-3.42c-.55.14-1.1.3-1.64.46l0,0a.36.36,0,0,1,0,.32c-.14.3-.31.58-.49.91l-.09-.12a2.66,2.66,0,0,0-.55-.56h0l-.22-.14h0c-.87.28-1.73.59-2.57.93a2.14,2.14,0,0,0-.18.54l-.13-.1-.25-.22-.84.35a14.53,14.53,0,0,1,1.08,1c.19.22.38.45.56.68-.54.25-1.06.51-1.59.73-.08,0-.25-.06-.33-.15a9.88,9.88,0,0,0-1.67-1.38l-.6.29.47.3.09.07a8,8,0,0,1,.67.52l.09.08a7.84,7.84,0,0,1,.65.64l-.46.32c-.15.1-.29.22-.45.34a8.22,8.22,0,0,0-2.31-1.62l-.66.36a6.15,6.15,0,0,1,1.31.65l.09,0,.54.4,0,0a6.28,6.28,0,0,1,.54.49l-.8.79a5.51,5.51,0,0,0-3.19-1.56l-.87.55a5,5,0,0,1,1.41.13h0l.36.11.2.08.25.11.29.15.19.11.33.23.15.11c.15.12.3.26.45.4l-.68.91a3.62,3.62,0,0,0-3.28-1.12,3.57,3.57,0,0,0-2.68,2.18l-1-.6a.54.54,0,0,1,.05-.11l-.79.62a10.84,10.84,0,0,1,3.53,3c-.53.24-1,.47-1.54.72-.19.09-.27,0-.37-.12a8.85,8.85,0,0,0-3.19-2.21l0,0L885,342a8.3,8.3,0,0,1,3.38,2.32l-.91.65a7.49,7.49,0,0,0-3.47-2l-.5.48A6.57,6.57,0,0,1,887,345.3l-.41.39-.39.39a5.27,5.27,0,0,0-3.8-1.63l-.57.6a4.71,4.71,0,0,1,4,1.45l-.68.89a3.61,3.61,0,0,0-6,1.07l-.11-.07c-.17.21-.33.42-.49.64a10.86,10.86,0,0,1,2.45,2.32c-.54.26-1.06.51-1.6.74-.07,0-.23-.06-.3-.13a10,10,0,0,0-1.66-1.39c-.1.16-.21.31-.31.46a8,8,0,0,1,1.63,1.43l-.9.65a8.81,8.81,0,0,0-1.37-1.1l-.3.48a8.52,8.52,0,0,1,1.23,1l-.81.79a7.54,7.54,0,0,0-1-.79l-.28.5a5.53,5.53,0,0,1,.91.72l-.67.9c-.25-.25-.22-.41-.5-.58l-.27.52c.2.15.1.27.29.44a.3.3,0,0,1,.05.29c-.14.31-.32.6-.5.93-.2-.28-.12-.47-.36-.63-.09.17-.17.34-.25.51.49.34.33.74.13,1.32a3.86,3.86,0,0,1-.16.48,1.2,1.2,0,0,1-.16.21c-.43.07-.48.19-.83.24l-.37.91a6.51,6.51,0,0,1,.78-.27,9.62,9.62,0,0,1,6.9,1.34l1.83-.36a3,3,0,0,1,4.49-.87l.72-.14a3.6,3.6,0,0,0-5.92,1.14l-.95-.61a4.55,4.55,0,0,1,3.15-2.7,4.63,4.63,0,0,1,4.5,1.36l-.58.77,1.19-.24a10.17,10.17,0,0,1,5.31-3.34,11.34,11.34,0,0,1,1.4-.23,10.84,10.84,0,0,1,4.38.52l.1,0,.5.19.17.08.47.22,0,0,.12.07,1.2-.24-.47-.29a4.61,4.61,0,0,1,3.32-2.74,4.41,4.41,0,0,1,3.32.59l.07,0,.07.05a5.61,5.61,0,0,1,.86.7l-.22.29,1.3-.25a10.25,10.25,0,0,1,2.42-1.88l-1.92-1.32h0l-.09-.06.34.28a9.51,9.51,0,0,1,.71.71l-.88.64a6.94,6.94,0,0,0-3.59-2.06l-.12,0-.08,0a6.88,6.88,0,0,0-2.48,0l-.21.05-.29.07a6.38,6.38,0,0,0-3.36,2l-.37.45,0,0a7.27,7.27,0,0,0-.77,1.27l-.12.22-1-.28a6.51,6.51,0,0,1,.5-1.13c.11-.19.22-.37.34-.55s.09-.13.13-.19a5.9,5.9,0,0,1,.37-.47,7.87,7.87,0,0,1,2-1.74l.13-.08.4-.21.66-.28.24-.08c.21-.07.43-.13.65-.18a8.1,8.1,0,0,1,2.83-.17l.3,0,.16,0a8,8,0,0,1,2.13.75l.34.17h0l-1.41-1L908,350l0,0a8.31,8.31,0,0,0-9,3.78,1.62,1.62,0,0,0-.1.18l-.12.23-.21.38a.31.31,0,0,1,0,.1l0,.07c-.06.14-.13.27-.19.41a.28.28,0,0,1-.34.19l-.35,0-.16,0h-.25l-.87-.07a10.35,10.35,0,0,1,8-7.24l.64-.08h0l-1-.65a.84.84,0,0,1-1-.25,2.11,2.11,0,0,1-.2-.29,1,1,0,0,1-.17-.49,1.38,1.38,0,0,1,1.18-1.42h.25l.36-.52h0a2,2,0,0,0-.85,0,2,2,0,0,0-1.53,1.61h0l-.76-.67a.29.29,0,0,1-.07-.26,2.87,2.87,0,0,1,2.25-1.85h0l-.12-.08-.49-.34h0a3.6,3.6,0,0,0-2.22,2.07l-1-.6a4.62,4.62,0,0,1,3-2.65h0l.29-.41.19-.26v0a5.14,5.14,0,0,0-4,3l-1-.44a6.21,6.21,0,0,1,4.57-3.74,6.85,6.85,0,0,1,1.33-.12l.08-.11.31-.44a6.86,6.86,0,0,0-1.73.1,6.79,6.79,0,0,0-5.12,4.11l-1.08-.29a7.93,7.93,0,0,1,8.73-5h0l.19-.26.15-.21h0a8.38,8.38,0,0,0-9.48,5,.48.48,0,0,1-.62.35,12.41,12.41,0,0,0-1.42-.11,10.33,10.33,0,0,1,7.9-7.22,10,10,0,0,1,4.83.29h0l.05-.08c.74-1,1.5-2.09,2.26-3.12a.86.86,0,0,1,.13-.14l.06-.05.09-.07.11-.05.07,0,.15,0h0l.19,0h.41l.18,0h0a6.36,6.36,0,0,1,1.87-.65,6.29,6.29,0,0,1,5.69,1.9l-.81.79a5.25,5.25,0,0,0-4.66-1.51l-.45.1h0a3,3,0,0,0-.45.15h0l.18.12.35.24a.1.1,0,0,1,0,0c.12,0,.23-.07.35-.09a4.6,4.6,0,0,1,4.23,1.38l-.67.9a3.8,3.8,0,0,0-2.4-1.14l.12.08.94.66v0l1.77,1.22a10.28,10.28,0,0,1,6-4.47,10.41,10.41,0,0,1,10.92,3.86c-.53.25-1,.47-1.54.72-.19.1-.27,0-.37-.12a8.9,8.9,0,0,0-3.18-2.21,8.35,8.35,0,0,0-10.25,3.31l.47.33a7.7,7.7,0,0,1,4.67-3.46,7.93,7.93,0,0,1,8,2.53l-.9.65a6.87,6.87,0,0,0-6.26-2.11,6.51,6.51,0,0,0-4.52,3.05l.46.32a6.2,6.2,0,0,1,9.86-.88l-.41.39-.39.39a5.2,5.2,0,0,0-8.54,1.49l-.59-.26-.48.67a10.91,10.91,0,0,1,4.39,3.37c-.54.26-1.06.52-1.59.74a.38.38,0,0,1-.31-.13,10.17,10.17,0,0,0-.91-.83l-.33.46a7.43,7.43,0,0,1,.9.87l-.9.65c-.21-.21-.44-.41-.66-.59l-.34.46c.19.16.38.32.56.49l-.81.8-.41-.36-.34.47c.12.1.25.2.36.31l-.67.91-.34-.31-.35.5.21.18a.3.3,0,0,1,.05.29c-.14.31-.32.6-.5.93a2.49,2.49,0,0,0-.42-.48l-.33.45a1,1,0,0,1,.27,1.23,3.86,3.86,0,0,1-.16.48,1.2,1.2,0,0,1-.16.21c-.51.09-.92.17-1.34.23l-.14,0-.83,1.16a10.89,10.89,0,0,1,1.89-.49,9.76,9.76,0,0,1,5.78.73l1.3-.25a4.51,4.51,0,0,1,3.15-2.67,4.37,4.37,0,0,1,3.14.36l.38-.09.43-.09a5,5,0,0,0-3.75-.8,5.15,5.15,0,0,0-3.87,3l-1-.45a6.24,6.24,0,0,1,10.12-2.1l.69-.14a6.87,6.87,0,0,0-11.37,2l-1.09-.3a7.84,7.84,0,0,1,5.53-4.9,7.94,7.94,0,0,1,7.89,2.54l-.84.59,2.34-.49a9,9,0,0,1,1.85-.66,10.54,10.54,0,0,1,2.64-.3L942,348l-.28-.08a7.93,7.93,0,0,1,5.79-5" transform="translate(-857.36 -318.3)"/><path d="M954.18,346.18a6.85,6.85,0,0,0-6.25-2.11,6.7,6.7,0,0,0-4.91,3.66l.75-.16a6.27,6.27,0,0,1,4.13-2.95,6.37,6.37,0,0,1,5.8,1.93s0,.05,0,.06l-.49.46,1.6-.33a8.29,8.29,0,0,1,.68-.48l-.54-.62-.75.54" transform="translate(-857.36 -318.3)"/><path d="M907.32,355.23h0a3.36,3.36,0,0,0-1.71-.12,3.51,3.51,0,0,0-2.45,1.74l.81-.16a3,3,0,0,1,2.88-1h0a1.83,1.83,0,0,1,.25.06,3.13,3.13,0,0,1,.54.23l.81-.16a3.76,3.76,0,0,0-.91-.51l-.19-.07" transform="translate(-857.36 -318.3)"/><path d="M892.81,358.86l4.3-.84a8.25,8.25,0,0,0-4.3.84" transform="translate(-857.36 -318.3)"/><path d="M871.44,362.59l-.15.46.88-.17a8.1,8.1,0,0,1,1.61-.44,8.37,8.37,0,0,1,1.2-.11l1.84-.36a8.4,8.4,0,0,0-5.38.62" transform="translate(-857.36 -318.3)"/><path d="M948.24,345.79a5,5,0,0,0-2.73,1.41l1.23-.26a4.59,4.59,0,0,1,5.29.38l.71-.15a5.16,5.16,0,0,0-4.5-1.38" transform="translate(-857.36 -318.3)"/><path d="M873.09,362.59a47.73,47.73,0,0,1,45.27-32.52c14,0,25.9,6.2,34.66,15.71l1.77-.38c-9.06-10.21-21.67-16.91-36.43-16.91a49.32,49.32,0,0,0-47,34.45l1.77-.35" transform="translate(-857.36 -318.3)"/><path d="M913.2,351.68,910,349.43l1.74-2.49L910,345.7c-.58.81-1.15,1.62-1.74,2.46l-3.18-2.24,1.72-2.5-2.45-1.74,2.25-3.19,2.46,1.72c.41-.58.8-1.13,1.22-1.74l-2.44-1.76c.76-1.06,1.49-2.11,2.25-3.19l3.18,2.26-1.71,2.47,1.72,1.22L915,337l3.18,2.25-1.74,2.5,2.46,1.76c-.73,1.05-1.46,2.08-2.24,3.19L914.22,345,913,346.72l2.46,1.77-2.24,3.19m.64-5.1c.18-.26.33-.48.52-.74l2.49,1.72,2.92-4.18-2.44-1.78,1.73-2.49c-1.41-1-2.78-2-4.18-3l-1.74,2.46-.72-.52,1.71-2.46c-1.33-.95-2.6-1.86-3.89-2.74a.49.49,0,0,0-.5.09c-.92,1.28-1.82,2.57-2.74,3.89l2.43,1.74-.51.74-2.46-1.72-2.94,4.2,2.43,1.75-1.72,2.49,4.19,2.94,1.73-2.45.74.54-1.73,2.48,4.19,2.95,2.94-4.19-2.45-1.76" transform="translate(-857.36 -318.3)"/><path d="M912.85,349.56l-.75-.51.53-.71.71.5-.49.72m-.37-2.08-1.22,1.73,1.72,1.22,1.22-1.73-1.72-1.22" transform="translate(-857.36 -318.3)"/><path d="M910,336.37l.51-.72.72.48-.5.74-.73-.5M912,336l-1.73-1.25-1.21,1.74,1.71,1.22L912,336" transform="translate(-857.36 -318.3)"/><path d="M909.64,343.57l-.72-.48.52-.74.71.51-.51.71m-.36-2.07-1.22,1.72,1.73,1.22,1.21-1.73-1.72-1.21" transform="translate(-857.36 -318.3)"/><path d="M911.41,344.82c.16-.25.31-.46.5-.73l.7.52-.48.72-.72-.51m2.06-.36-1.71-1.23L910.54,345l1.73,1.22c.41-.61.8-1.16,1.2-1.73" transform="translate(-857.36 -318.3)"/><path d="M906.46,341.33l.51-.73c.25.17.45.3.71.49-.16.23-.3.45-.48.73l-.74-.49m2.09-.37-1.72-1.23-1.22,1.74,1.73,1.21c.4-.58.78-1.12,1.21-1.72" transform="translate(-857.36 -318.3)"/><path d="M916.82,343.87l-.49.72-.72-.49.49-.72.72.49m-2.08.37,1.73,1.21c.42-.59.8-1.14,1.22-1.72L916,342.51l-1.22,1.73" transform="translate(-857.36 -318.3)"/><path d="M913.64,341.62l.71.49-.48.73-.73-.48.5-.74m.36,2.09,1.22-1.73-1.73-1.22-1.21,1.73,1.72,1.22" transform="translate(-857.36 -318.3)"/><path d="M910.67,340.6l.51-.74.7.52-.49.73-.72-.51m2.08-.37L911,339l-1.2,1.73,1.72,1.22,1.21-1.73" transform="translate(-857.36 -318.3)"/><path d="M908.43,345.33l-.52.72-.73-.5.52-.73.73.51m-2.1.37,1.74,1.21,1.2-1.73L907.55,344l-1.22,1.74" transform="translate(-857.36 -318.3)"/><path d="M914.87,339.84l.52-.71.7.49-.49.73-.73-.51m2.08-.36-1.72-1.22L914,340l1.73,1.22,1.21-1.73" transform="translate(-857.36 -318.3)"/></g></g></g></svg>